<svg width="30" height="30" viewBox="0 0 30 30" fill="none" xmlns="http://www.w3.org/2000/svg">
<path fill-rule="evenodd" clip-rule="evenodd" d="M8.75 5C8.75 3.61929 9.86929 2.5 11.25 2.5H18.75C20.1307 2.5 21.25 3.61929 21.25 5V7.5H23.7371C23.7448 7.49993 23.7526 7.49993 23.7603 7.5H26.25C26.9404 7.5 27.5 8.05964 27.5 8.75C27.5 9.44036 26.9404 10 26.25 10H24.9139L23.8297 25.1781C23.7363 26.4864 22.6477 27.5 21.3361 27.5H8.6639C7.3523 27.5 6.2637 26.4864 6.17025 25.1781L5.0861 10H3.75C3.05964 10 2.5 9.44036 2.5 8.75C2.5 8.05964 3.05964 7.5 3.75 7.5H6.23968C6.24744 7.49993 6.25518 7.49993 6.2629 7.5H8.75V5ZM11.25 7.5H18.75V5H11.25V7.5ZM7.59247 10L8.6639 25H21.3361L22.4075 10H7.59247ZM12.5 12.5C13.1904 12.5 13.75 13.0596 13.75 13.75V21.25C13.75 21.9404 13.1904 22.5 12.5 22.5C11.8096 22.5 11.25 21.9404 11.25 21.25V13.75C11.25 13.0596 11.8096 12.5 12.5 12.5ZM17.5 12.5C18.1904 12.5 18.75 13.0596 18.75 13.75V21.25C18.75 21.9404 18.1904 22.5 17.5 22.5C16.8096 22.5 16.25 21.9404 16.25 21.25V13.75C16.25 13.0596 16.8096 12.5 17.5 12.5Z" fill="#166FA8"/>
</svg>
