<svg width="20" height="20" viewBox="0 0 20 20" fill="none" xmlns="http://www.w3.org/2000/svg">
<path fill-rule="evenodd" clip-rule="evenodd" d="M13.5774 2.74408C13.9028 2.41864 14.4305 2.41864 14.7559 2.74408L17.2559 5.24408C17.5814 5.56951 17.5814 6.09715 17.2559 6.42259L9.75592 13.9226C9.59964 14.0789 9.38768 14.1667 9.16667 14.1667H6.66667C6.20643 14.1667 5.83333 13.7936 5.83333 13.3333V10.8333C5.83333 10.6123 5.92113 10.4004 6.07741 10.2441L13.5774 2.74408ZM7.5 11.1785V12.5H8.82149L15.4882 5.83333L14.1667 4.51184L7.5 11.1785ZM2.5 5.83333C2.5 4.91286 3.24619 4.16667 4.16667 4.16667H8.33333C8.79357 4.16667 9.16667 4.53976 9.16667 5C9.16667 5.46024 8.79357 5.83333 8.33333 5.83333H4.16667V15.8333H14.1667V11.6667C14.1667 11.2064 14.5398 10.8333 15 10.8333C15.4602 10.8333 15.8333 11.2064 15.8333 11.6667V15.8333C15.8333 16.7538 15.0871 17.5 14.1667 17.5H4.16667C3.24619 17.5 2.5 16.7538 2.5 15.8333V5.83333Z" fill="#BABABA"/>
</svg>
