<svg width="30" height="30" viewBox="0 0 30 30" fill="none" xmlns="http://www.w3.org/2000/svg">
<path fill-rule="evenodd" clip-rule="evenodd" d="M27.1339 14.1161C27.622 14.6043 27.622 15.3957 27.1339 15.8839L22.1339 20.8839C21.6457 21.372 20.8543 21.372 20.3661 20.8839C19.878 20.3957 19.878 19.6043 20.3661 19.1161L23.2322 16.25H10C9.30964 16.25 8.75 15.6904 8.75 15C8.75 14.3096 9.30964 13.75 10 13.75L23.2322 13.75L20.3661 10.8839C19.878 10.3957 19.878 9.60427 20.3661 9.11612C20.8543 8.62796 21.6457 8.62796 22.1339 9.11612L27.1339 14.1161ZM8.75 6.25C8.75 6.94036 8.19036 7.5 7.5 7.5H5V22.5H7.5C8.19036 22.5 8.75 23.0596 8.75 23.75C8.75 24.4404 8.19036 25 7.5 25H5C3.61929 25 2.5 23.8807 2.5 22.5V7.5C2.5 6.11929 3.61929 5 5 5L7.5 5C8.19036 5 8.75 5.55964 8.75 6.25Z" fill="#166FA8"/>
</svg>
