<svg width="35" height="35" viewBox="0 0 35 35" fill="none" xmlns="http://www.w3.org/2000/svg">
<path fill-rule="evenodd" clip-rule="evenodd" d="M5.83331 5.83335C5.83331 4.22253 7.13915 2.91669 8.74998 2.91669H20.4166C20.8034 2.91669 21.1744 3.07033 21.4478 3.34382L28.7395 10.6355C29.013 10.909 29.1666 11.2799 29.1666 11.6667V29.1667C29.1666 30.7775 27.8608 32.0834 26.25 32.0834H8.74998C7.13915 32.0834 5.83331 30.7775 5.83331 29.1667V5.83335ZM25.6459 11.6667H20.4166V6.43741L25.6459 11.6667ZM17.5 5.83335V13.125C17.5 13.9304 18.1529 14.5834 18.9583 14.5834H26.25V29.1667H8.74998V5.83335L17.5 5.83335ZM11.6666 18.9584C11.6666 18.1529 12.3196 17.5 13.125 17.5H21.875C22.6804 17.5 23.3333 18.1529 23.3333 18.9584C23.3333 19.7638 22.6804 20.4167 21.875 20.4167H13.125C12.3196 20.4167 11.6666 19.7638 11.6666 18.9584ZM11.6666 24.7917C11.6666 23.9863 12.3196 23.3334 13.125 23.3334H21.875C22.6804 23.3334 23.3333 23.9863 23.3333 24.7917C23.3333 25.5971 22.6804 26.25 21.875 26.25H13.125C12.3196 26.25 11.6666 25.5971 11.6666 24.7917Z" fill="#166FA8"/>
</svg>
