<svg width="35" height="35" viewBox="0 0 35 35" fill="none" xmlns="http://www.w3.org/2000/svg">
<path fill-rule="evenodd" clip-rule="evenodd" d="M23.7605 4.80214C24.33 4.23262 25.2534 4.23262 25.8229 4.80214L30.1979 9.17714C30.7674 9.74665 30.7674 10.67 30.1979 11.2395L17.0729 24.3645C16.7994 24.638 16.4284 24.7917 16.0417 24.7917H11.6667C10.8613 24.7917 10.2083 24.1388 10.2083 23.3333V18.9583C10.2083 18.5716 10.362 18.2006 10.6355 17.9271L23.7605 4.80214ZM13.125 19.5624V21.875H15.4376L27.1043 10.2083L24.7917 7.89573L13.125 19.5624ZM4.375 10.2083C4.375 8.5975 5.68084 7.29167 7.29167 7.29167H14.5833C15.3887 7.29167 16.0417 7.94458 16.0417 8.75C16.0417 9.55542 15.3887 10.2083 14.5833 10.2083H7.29167V27.7083H24.7917V20.4167C24.7917 19.6113 25.4446 18.9583 26.25 18.9583C27.0554 18.9583 27.7083 19.6113 27.7083 20.4167V27.7083C27.7083 29.3192 26.4025 30.625 24.7917 30.625H7.29167C5.68084 30.625 4.375 29.3192 4.375 27.7083V10.2083Z" fill="white"/>
</svg>
