<svg width="35" height="35" viewBox="0 0 35 35" fill="none" xmlns="http://www.w3.org/2000/svg">
<path fill-rule="evenodd" clip-rule="evenodd" d="M5.83331 5.83329C5.83331 4.22246 7.13915 2.91663 8.74998 2.91663H20.4166C20.8034 2.91663 21.1744 3.07027 21.4478 3.34376L28.7395 10.6354C29.013 10.9089 29.1666 11.2799 29.1666 11.6666V29.1666C29.1666 30.7775 27.8608 32.0833 26.25 32.0833H8.74998C7.13915 32.0833 5.83331 30.7775 5.83331 29.1666V5.83329ZM25.6459 11.6666H20.4166V6.43735L25.6459 11.6666ZM17.5 5.83329V13.125C17.5 13.9304 18.1529 14.5833 18.9583 14.5833H26.25V29.1666H8.74998V5.83329L17.5 5.83329ZM11.6666 18.9583C11.6666 18.1529 12.3196 17.5 13.125 17.5H21.875C22.6804 17.5 23.3333 18.1529 23.3333 18.9583C23.3333 19.7637 22.6804 20.4166 21.875 20.4166H13.125C12.3196 20.4166 11.6666 19.7637 11.6666 18.9583ZM11.6666 24.7916C11.6666 23.9862 12.3196 23.3333 13.125 23.3333H21.875C22.6804 23.3333 23.3333 23.9862 23.3333 24.7916C23.3333 25.597 22.6804 26.25 21.875 26.25H13.125C12.3196 26.25 11.6666 25.597 11.6666 24.7916Z" fill="white"/>
</svg>
