<svg width="27" height="27" viewBox="0 0 27 27" fill="none" xmlns="http://www.w3.org/2000/svg">
<path fill-rule="evenodd" clip-rule="evenodd" d="M20.0559 11.5279C20.0559 16.2378 16.2378 20.0559 11.5279 20.0559C6.81809 20.0559 3 16.2378 3 11.5279C3 6.81809 6.81809 3 11.5279 3C16.2378 3 20.0559 6.81809 20.0559 11.5279ZM18.5454 20.6746C16.6018 22.168 14.1685 23.0559 11.5279 23.0559C5.16123 23.0559 0 17.8946 0 11.5279C0 5.16123 5.16123 0 11.5279 0C17.8946 0 23.0559 5.16123 23.0559 11.5279C23.0559 14.1726 22.1653 16.6092 20.6678 18.5543L25.7717 23.6402C26.3585 24.225 26.3602 25.1747 25.7754 25.7615C25.1907 26.3484 24.2409 26.35 23.6541 25.7653L18.5454 20.6746Z" fill="#166FA8"/>
</svg>
